<svg height="512" viewBox="0 0 512 512" width="512" xmlns="http://www.w3.org/2000/svg"><clipPath id="a"><path d="m0 0h512v512h-512z"/></clipPath><g clip-path="url(#a)"><path d="m289.609 256.167a17.426 17.426 0 0 0 -1.5-7.524 18.4 18.4 0 0 0 -4.515-5.852l-253.494-237.775a16.813 16.813 0 0 0 -12.376-5.016 18.648 18.648 0 0 0 -9.029 2.174 16.14 16.14 0 0 0 -6.354 6.187 17.587 17.587 0 0 0 -2.341 9.029 17.548 17.548 0 0 0 5.016 12.374l241.784 226.403-241.784 226.069a16.419 16.419 0 0 0 -5.016 12.04 17.352 17.352 0 0 0 2.341 9.2 17.8 17.8 0 0 0 6.354 6.187 17.587 17.587 0 0 0 9.029 2.337 16.289 16.289 0 0 0 12.376-5.351l253.49-237.439a18.4 18.4 0 0 0 4.515-5.852 16.6 16.6 0 0 0 1.504-7.191z" transform="matrix(0 -1 1 0 0 400.609)"/></g></svg>