<svg height="512" viewBox="0 0 512 512" width="512" xmlns="http://www.w3.org/2000/svg" xmlns:xlink="http://www.w3.org/1999/xlink"><clipPath id="a"><path d="m0 0h512v512h-512z"/></clipPath><g clip-path="url(#a)"><path d="m293.125 260.7a17.426 17.426 0 0 1 -1.5 7.524 18.4 18.4 0 0 1 -4.515 5.852l-253.496 237.777a16.813 16.813 0 0 1 -12.374 5.016 18.648 18.648 0 0 1 -9.029-2.174 16.14 16.14 0 0 1 -6.354-6.187 18.087 18.087 0 0 1 2.675-21.4l241.787-226.408-241.787-226.067a16.419 16.419 0 0 1 -5.016-12.039 17.352 17.352 0 0 1 2.341-9.2 17.8 17.8 0 0 1 6.354-6.184 17.587 17.587 0 0 1 9.029-2.341 16.289 16.289 0 0 1 12.374 5.351l253.492 237.44a18.4 18.4 0 0 1 4.515 5.852 16.6 16.6 0 0 1 1.504 7.188z" transform="translate(107.484 -4.869)"/></g></svg>